<svg width="1439" height="1024" viewBox="0 0 1439 1024" fill="none" xmlns="http://www.w3.org/2000/svg">
<g clip-path="url(#clip0)">
<rect width="1439" height="1024" fill="#040415"/>
<g style="mix-blend-mode:difference" opacity="0.03">
<path d="M1519.32 92.1255C1517.76 86.9667 1516.21 81.8079 1514.71 76.5935C1505 43.3106 1495.8 12.0802 1470.33 -13.6031C1444.87 -39.2864 1413.31 -48.4947 1380.14 -57.9803C1345.25 -68.1871 1309.24 -78.7822 1278.85 -109.181C1248.45 -139.579 1237.85 -175.746 1227.65 -210.472C1217.94 -243.754 1208.79 -274.985 1183.27 -300.668C1157.75 -326.351 1125.47 -335.782 1092.18 -345.489L1076.65 -350.093L1084.47 -375L1099.73 -370.451C1134.56 -360.245 1170.62 -349.705 1201.02 -319.307C1231.42 -288.908 1241.96 -252.963 1252.16 -218.016C1261.93 -184.733 1271.08 -153.502 1296.54 -127.764C1322 -102.025 1353.62 -92.9274 1386.79 -83.3863C1421.63 -73.1795 1457.69 -62.64 1488.08 -32.2415C1518.48 -1.84317 1529.02 34.3242 1539.23 69.0494C1540.73 74.1528 1542.22 79.2007 1543.78 84.3041L1519.32 92.1255Z" fill="#FFF1ED"/>
<path d="M1523.36 242.176C1519.32 238.909 1515.45 235.428 1511.77 231.747C1481.37 201.349 1470.83 165.181 1460.63 130.456C1450.92 97.1734 1441.71 65.9429 1416.25 40.2596C1390.79 14.5763 1359.22 5.36804 1326.05 -4.11758C1291.16 -14.3243 1255.16 -24.9194 1224.76 -55.3178C1194.36 -85.7162 1183.77 -121.884 1173.56 -156.609C1163.85 -189.892 1154.65 -221.122 1129.18 -246.805C1103.72 -272.489 1072.16 -281.697 1038.99 -291.183C1004.1 -301.389 968.095 -311.984 937.696 -342.383C934.003 -346.027 930.521 -349.879 927.268 -353.921L947.459 -370.562C950.162 -367.221 953.032 -364.018 956.057 -360.966C981.796 -335.282 1013.14 -326.13 1046.31 -316.589C1081.15 -306.382 1117.2 -295.842 1147.6 -265.444C1178 -235.045 1188.54 -198.878 1198.75 -164.153C1208.51 -130.87 1217.66 -99.6395 1243.12 -73.9007C1268.58 -48.162 1300.15 -39.0646 1333.37 -29.5235C1368.21 -19.3168 1404.27 -8.77719 1434.67 21.6212C1465.06 52.0196 1475.6 88.187 1485.81 122.912C1495.52 156.195 1504.73 187.425 1530.19 213.164C1533.24 216.19 1536.44 219.059 1539.78 221.762L1523.36 242.176Z" fill="#FFF1ED"/>
<path d="M1527.25 326.826C1501.28 318.59 1477.55 304.488 1457.91 285.61C1427.51 255.212 1416.97 219.044 1406.76 184.319C1397.06 151.036 1387.85 119.806 1362.39 94.1226C1336.92 68.4393 1305.36 59.231 1272.19 49.7454C1237.3 39.5386 1201.24 28.9436 1170.84 -1.45483C1140.44 -31.8532 1129.9 -68.0206 1119.7 -102.746C1109.99 -136.029 1100.78 -167.259 1075.32 -192.942C1049.86 -218.626 1018.3 -227.834 985.124 -237.32C950.233 -247.526 914.232 -258.066 883.833 -288.464C864.722 -308.223 850.461 -332.149 842.174 -358.359L866.748 -366.957C873.743 -344.715 885.714 -324.36 901.75 -307.436C927.489 -281.752 958.831 -272.544 992.003 -263.058C1026.84 -252.852 1062.9 -242.312 1093.29 -211.914C1123.69 -181.515 1134.23 -145.348 1144.44 -110.623C1154.15 -77.3398 1163.35 -46.1094 1188.82 -20.3706C1214.28 5.36816 1245.84 14.4655 1279.07 24.0066C1313.9 34.2134 1349.96 44.753 1380.36 75.1514C1410.76 105.55 1421.3 141.717 1431.5 176.442C1441.21 209.725 1450.42 240.956 1475.88 266.694C1492.91 283.004 1513.47 295.171 1535.96 302.252L1527.25 326.826Z" fill="#FFF1ED"/>
<path d="M1527.58 397.385C1520.2 395 1512.77 392.837 1505.39 390.673C1470.56 380.466 1434.5 369.871 1404.1 339.473C1373.7 309.075 1363.16 272.907 1352.96 238.182C1343.25 204.899 1334.04 173.669 1308.58 147.985C1283.12 122.302 1251.55 113.094 1218.38 103.608C1183.49 93.4015 1147.43 82.8064 1117.04 52.408C1086.64 22.0096 1076.1 -14.1578 1065.89 -48.883C1056.18 -82.1659 1046.98 -113.396 1021.51 -139.08C996.053 -164.763 964.489 -173.971 931.317 -183.457C896.426 -193.664 860.425 -204.203 830.027 -234.602C799.628 -265 789.033 -301.167 778.826 -335.948C776.663 -343.326 774.5 -350.759 772.114 -358.137L796.91 -366.125C799.351 -358.525 801.57 -350.87 803.788 -343.215C813.551 -309.932 822.704 -278.701 848.166 -253.018C873.627 -227.335 905.19 -218.127 938.418 -208.641C973.254 -198.434 1009.31 -187.895 1039.71 -157.496C1070.11 -127.098 1080.65 -90.9304 1090.85 -56.2052C1100.56 -22.9223 1109.77 8.36362 1135.23 34.0469C1160.69 59.7302 1192.03 68.7721 1225.32 78.4241C1260.21 88.6309 1296.26 99.1705 1326.66 129.569C1357.06 159.967 1367.6 196.135 1377.81 230.86C1387.52 264.143 1396.72 295.373 1422.18 321.112C1447.65 346.851 1479.21 355.948 1512.38 365.489C1520.04 367.708 1527.69 369.927 1535.29 372.368L1527.58 397.385Z" fill="#FFF1ED"/>
<path d="M1524.14 474.491C1502.23 459.402 1477.6 452.302 1451.53 444.536C1416.64 434.329 1380.58 423.734 1350.18 393.336C1319.78 362.937 1309.24 326.77 1299.04 292.045C1289.33 258.762 1280.12 227.531 1254.66 201.848C1229.2 176.165 1197.58 166.957 1164.3 157.526C1129.41 147.32 1093.35 136.78 1062.95 106.382C1032.55 75.9833 1022.01 39.8159 1011.81 5.03528C1002.1 -28.2476 992.891 -59.4781 967.43 -85.1614C941.968 -110.845 910.405 -120.053 877.233 -129.539C842.341 -139.745 806.285 -150.285 775.886 -180.683C745.488 -211.082 734.948 -247.249 724.742 -282.03C717.087 -308.101 709.875 -332.786 694.787 -354.697L715.922 -369.952C733.395 -344.602 741.55 -316.755 749.205 -289.796C758.912 -256.513 768.12 -225.282 793.582 -199.599C819.043 -173.916 850.607 -164.708 883.834 -155.222C918.67 -145.015 954.727 -134.476 985.125 -104.077C1015.52 -73.6788 1026.06 -37.5114 1036.27 -2.78622C1045.98 30.4967 1055.19 61.7827 1080.65 87.4659C1106.11 113.149 1137.67 122.358 1170.84 131.843C1205.74 142.05 1241.79 152.589 1272.19 182.988C1302.59 213.386 1313.13 249.554 1323.33 284.279C1333.04 317.562 1342.25 348.848 1367.71 374.531C1393.17 400.214 1424.74 409.367 1457.91 418.908C1484.87 426.785 1512.71 434.939 1538.06 452.191L1524.14 474.491Z" fill="#FFF1ED"/>
<path d="M1519.32 593.255C1512.49 574.449 1501.73 557.315 1487.75 542.998C1462.07 517.315 1430.73 508.106 1397.5 498.621C1362.66 488.414 1326.61 477.874 1296.21 447.421C1265.81 416.967 1255.27 380.855 1245.06 346.13C1235.36 312.847 1226.15 281.616 1200.69 255.933C1175.23 230.25 1143.66 221.041 1110.43 211.556C1075.6 201.349 1039.54 190.809 1009.14 160.411C978.745 130.013 968.206 93.8452 957.999 59.0645C948.291 25.7816 939.083 -5.44882 913.622 -31.1321C888.16 -56.8154 856.597 -66.0237 823.425 -75.5093C788.534 -85.7161 752.477 -96.2557 722.079 -126.654C691.68 -157.052 681.141 -193.22 670.934 -228.001C661.226 -261.283 652.018 -292.514 626.557 -318.197C612.231 -332.162 595.1 -342.921 576.3 -349.76L585.286 -374.667C607.42 -366.528 627.574 -353.785 644.419 -337.279C674.817 -306.881 685.357 -270.714 695.563 -235.933C705.271 -202.65 714.479 -171.42 739.941 -145.736C765.402 -120.053 796.965 -110.845 830.137 -101.359C865.029 -91.1523 901.085 -80.6127 931.484 -50.2144C961.882 -19.8159 972.422 16.3515 982.628 51.1321C992.336 84.415 1001.54 115.645 1027.01 141.329C1052.47 167.012 1084.03 176.22 1117.2 185.706C1152.09 195.913 1188.15 206.452 1218.55 236.851C1248.95 267.249 1259.49 303.417 1269.69 338.142C1279.4 371.425 1288.61 402.711 1314.07 428.394C1339.53 454.077 1371.1 463.285 1404.27 472.771C1439.16 482.978 1475.22 493.517 1505.61 523.916C1522.12 540.76 1534.86 560.915 1543 583.048L1519.32 593.255Z" fill="#FFF1ED"/>
<path d="M1521.65 779.639C1497.35 751.127 1487.81 718.621 1478.6 687.057C1468.89 653.775 1459.68 622.544 1434.22 596.861C1408.76 571.177 1377.2 561.969 1343.97 552.484C1309.13 542.277 1273.08 531.737 1242.68 501.339C1212.28 470.94 1201.74 434.773 1191.53 399.992C1181.83 366.709 1172.62 335.479 1147.16 309.796C1121.7 284.112 1090.13 274.904 1056.9 265.418C1022.07 255.212 986.012 244.672 955.614 214.274C925.216 183.875 914.676 147.708 904.469 112.927C894.762 79.6444 885.553 48.4139 860.092 22.7306C834.631 -2.95267 803.067 -12.1609 769.895 -21.6465C735.004 -31.8533 698.947 -42.3929 668.549 -72.7913C638.151 -103.19 627.611 -139.357 617.404 -174.138C607.697 -207.421 598.488 -238.651 573.027 -264.334C547.566 -290.018 515.281 -299.892 481.998 -309.599C450.435 -318.807 417.873 -328.348 389.361 -352.811L406.002 -372.615C430.243 -351.924 458.756 -343.548 489.21 -334.728C524.046 -324.521 560.102 -313.981 590.501 -283.583C620.899 -253.185 631.438 -217.017 641.645 -182.237C651.353 -148.954 660.561 -117.723 686.022 -92.0399C711.484 -66.3566 743.047 -57.1483 776.219 -47.6627C811.111 -37.4559 847.167 -26.9163 877.566 3.48206C907.964 33.8804 918.504 70.0478 928.71 104.828C938.418 138.111 947.626 169.342 973.088 195.025C998.549 220.708 1030.11 229.917 1063.28 239.402C1098.18 249.609 1134.23 260.149 1164.63 290.547C1195.03 320.945 1205.57 357.113 1215.78 391.838C1225.48 425.121 1234.69 456.407 1260.15 482.09C1285.61 507.773 1317.18 516.982 1350.35 526.467C1385.24 536.674 1421.24 547.214 1451.64 577.612C1482.04 608.01 1492.63 644.178 1502.84 678.903C1511.66 709.135 1520.04 737.647 1540.73 762.11L1521.65 779.639Z" fill="#FFF1ED"/>
<path d="M1526.3 876.049C1507.54 868.023 1490.44 856.566 1475.88 842.267C1445.48 811.868 1434.94 775.701 1424.74 740.92C1414.97 707.637 1405.82 676.407 1380.36 650.724C1354.9 625.04 1323.33 615.832 1290.11 606.346C1255.27 596.14 1219.21 585.6 1188.82 555.202C1158.42 524.803 1147.88 488.636 1137.67 453.855C1127.96 420.572 1118.75 389.342 1093.29 363.659C1067.83 337.975 1036.27 328.767 1003.1 319.281C968.205 309.075 932.149 298.535 901.75 268.137C871.352 237.738 860.812 201.571 850.606 166.79C840.898 133.507 831.69 102.277 806.229 76.5935C780.767 50.9102 749.204 41.7019 716.032 32.2163C681.14 22.0095 645.084 11.4699 614.685 -18.9284C584.287 -49.3268 573.747 -85.4943 563.541 -120.275C553.833 -153.558 544.625 -184.788 519.163 -210.472C493.702 -236.155 462.139 -245.363 428.967 -254.849C393.243 -265.943 357.131 -276.483 326.677 -306.881C312.361 -321.427 300.902 -338.531 292.895 -357.305L316.748 -367.789C323.392 -351.863 333.033 -337.363 345.149 -325.076C370.833 -299.392 402.174 -290.184 435.346 -280.698C470.238 -270.492 506.294 -259.952 536.692 -229.554C567.091 -199.155 577.63 -162.988 587.837 -128.207C597.545 -94.9244 606.753 -63.694 632.214 -38.0107C657.676 -12.3273 689.239 -3.11908 722.411 6.36655C757.303 16.5733 793.359 27.1129 823.758 57.5113C854.156 87.9097 864.695 124.077 874.902 158.858C884.61 192.141 893.818 223.371 919.279 249.054C944.741 274.738 976.304 283.946 1009.48 293.432C1044.37 303.638 1080.42 314.178 1110.82 344.576C1141.22 374.975 1151.76 411.142 1161.97 445.867C1171.67 479.15 1180.88 510.436 1206.34 536.119C1231.81 561.803 1263.37 571.011 1296.54 580.497C1331.43 590.703 1367.43 601.243 1397.83 631.641C1428.23 662.04 1438.83 698.207 1449.03 732.932C1458.74 766.215 1467.95 797.501 1493.41 823.185C1505.63 835.269 1520.05 844.892 1535.9 851.53L1526.3 876.049Z" fill="#FFF1ED"/>
<path d="M1527.86 948.606L1523.31 947.274C1488.47 937.068 1452.42 926.528 1422.02 896.13C1391.62 865.731 1381.08 829.564 1370.87 794.783C1361.11 761.5 1351.96 730.27 1326.5 704.586C1301.04 678.903 1269.42 669.695 1236.24 660.209C1201.41 650.003 1165.35 639.463 1134.95 609.065C1104.56 578.666 1094.02 542.499 1083.81 507.718C1074.1 474.435 1064.89 443.205 1039.43 417.521C1013.97 391.838 982.407 382.63 949.179 373.144C914.343 362.937 878.287 352.398 847.888 322C817.49 291.601 806.951 255.434 796.744 220.653C787.036 187.37 777.828 156.14 752.367 130.456C726.905 104.773 695.342 95.5648 662.17 86.0792C627.278 75.8724 591.222 65.3328 560.823 34.9344C530.425 4.53604 519.885 -31.6314 509.679 -66.3566C499.971 -99.6395 490.763 -130.925 465.301 -156.609C439.84 -182.292 408.277 -191.5 375.105 -200.986C339.326 -212.08 303.269 -222.62 272.871 -252.963C242.472 -283.306 231.933 -319.529 221.726 -354.309L220.395 -358.913L245.357 -366.236L246.688 -361.631C256.396 -328.348 265.604 -297.118 291.065 -271.435C316.527 -245.751 348.09 -236.543 381.262 -227.058C416.154 -216.851 452.21 -206.311 482.609 -175.913C513.007 -145.514 523.547 -109.347 533.753 -74.5663C543.461 -41.2834 552.669 -10.053 578.131 15.6303C603.592 41.3136 635.155 50.5219 668.327 60.0075C703.219 70.2143 739.275 80.7539 769.674 111.152C800.072 141.551 810.612 177.718 820.818 212.499C830.526 245.782 839.734 277.012 865.196 302.695C890.657 328.379 922.22 337.587 955.392 347.073C990.284 357.279 1026.28 367.819 1056.68 398.217C1087.08 428.616 1097.68 464.783 1107.88 499.564C1117.59 532.847 1126.8 564.077 1152.26 589.76C1177.72 615.444 1209.29 624.652 1242.46 634.138C1277.35 644.344 1313.35 654.884 1343.75 685.282C1374.15 715.681 1384.74 751.848 1394.95 786.573C1404.66 819.856 1413.86 851.142 1439.33 876.826C1464.79 902.509 1496.35 911.717 1529.52 921.203L1534.13 922.534L1527.86 948.606Z" fill="#FFF1ED"/>
<path d="M1525.69 1021.38C1507.59 1012.92 1488.74 1006.14 1469.39 1001.14C1434.55 990.93 1398.5 980.391 1368.1 949.992C1337.7 919.594 1327.16 883.426 1316.95 848.646C1307.19 815.363 1298.04 784.133 1272.58 758.449C1247.12 732.766 1215.5 723.558 1182.33 714.072C1147.49 703.865 1111.43 693.326 1081.03 662.927C1050.64 632.529 1040.1 596.361 1029.89 561.581C1020.13 528.298 1010.97 497.068 985.512 471.384C960.051 445.701 928.488 436.493 895.26 427.007C860.424 416.8 824.368 406.261 793.969 375.862C763.571 345.464 753.031 309.296 742.825 274.516C733.117 241.233 723.909 210.002 698.447 184.319C672.986 158.636 641.423 149.428 608.195 139.942C573.359 129.735 537.303 119.196 506.904 88.7972C476.506 58.3988 465.966 22.2314 455.76 -12.4938C446.052 -45.7767 436.844 -77.0626 411.382 -102.746C385.921 -128.429 354.358 -137.582 321.13 -147.123C286.294 -157.33 250.238 -167.869 219.839 -198.268C189.441 -228.666 178.901 -264.834 168.695 -299.559C163.473 -319.222 156.416 -338.351 147.615 -356.694L170.803 -368.454C180.076 -348.962 187.505 -328.645 192.991 -307.769C202.699 -274.486 211.907 -243.255 237.368 -217.572C262.83 -191.889 294.393 -182.68 327.565 -173.195C362.457 -162.988 398.513 -152.448 428.911 -121.995C459.31 -91.5407 469.849 -55.4287 480.056 -20.7036C489.764 12.5793 498.972 43.8098 524.433 69.4931C549.895 95.1764 581.458 104.385 614.63 113.87C649.522 124.077 685.578 134.617 715.976 165.015C746.375 195.413 756.914 231.581 767.121 266.361C776.829 299.644 786.037 330.875 811.498 356.558C836.96 382.242 868.523 391.45 901.695 400.935C936.587 411.142 972.588 421.682 1002.99 452.08C1033.38 482.479 1043.98 518.646 1054.19 553.427C1063.89 586.709 1073.1 617.94 1098.56 643.623C1124.02 669.306 1155.59 678.515 1188.76 688C1223.65 698.207 1259.65 708.747 1290.05 739.145C1320.45 769.544 1331.04 805.711 1341.25 840.492C1350.96 873.774 1360.11 905.005 1385.63 930.688C1411.15 956.372 1442.65 965.58 1475.82 975.065C1496.7 980.552 1517.02 987.981 1536.51 997.254L1525.69 1021.38Z" fill="#FFF1ED"/>
<path d="M1520.81 1117.74C1516.39 1111.24 1511.38 1105.17 1505.84 1099.6C1480.1 1073.92 1448.76 1064.71 1415.58 1055.22C1380.64 1045.07 1344.69 1034.25 1314.07 1003.86C1283.45 973.457 1273.13 937.289 1262.87 902.509C1253.16 869.226 1244.01 837.995 1218.49 812.312C1192.98 786.629 1161.41 777.42 1128.24 767.935C1093.4 757.728 1057.35 747.188 1026.95 716.79C996.552 686.392 986.012 650.224 975.805 615.444C966.042 582.161 956.89 550.93 931.428 525.247C905.967 499.564 874.348 490.355 841.176 480.87C806.34 470.663 770.283 460.123 739.885 429.725C709.487 399.327 698.947 363.159 688.74 328.434C678.977 295.151 669.824 263.865 644.363 238.182C618.902 212.499 587.338 203.346 554.111 193.805C519.275 183.598 483.218 173.058 452.82 142.66C422.422 112.262 411.882 76.0942 401.675 41.369C391.968 8.08612 382.759 -23.1998 357.298 -48.8831C331.837 -74.5664 300.273 -83.7192 267.046 -93.2603C232.21 -103.467 196.153 -114.007 165.755 -144.405C135.356 -174.803 124.817 -210.971 114.61 -245.696C104.903 -278.979 95.6944 -310.209 70.2329 -335.948C64.6607 -341.489 58.5885 -346.502 52.0938 -350.925L65.9616 -373.336C73.7828 -367.966 81.0983 -361.895 87.8174 -355.197C118.216 -324.798 128.755 -288.631 138.962 -253.906C148.67 -220.623 157.878 -189.392 183.339 -163.709C208.801 -138.026 240.364 -128.818 273.536 -119.332C308.428 -109.125 344.484 -98.5301 374.882 -68.1317C405.281 -37.7333 415.82 -1.56592 426.027 33.1592C435.735 66.4422 444.943 97.6726 470.404 123.356C495.866 149.039 527.429 158.247 560.601 167.733C595.493 177.94 631.494 188.479 661.892 218.878C692.29 249.276 702.885 285.444 713.092 320.224C722.8 353.507 732.008 384.738 757.469 410.421C782.931 436.104 814.494 445.312 847.666 454.798C882.558 465.005 918.559 475.544 948.957 505.943C979.355 536.341 989.951 572.509 1000.16 607.289C1009.86 640.572 1019.07 671.803 1044.53 697.486C1070 723.169 1101.56 732.378 1134.73 741.863C1169.62 752.07 1205.62 762.609 1236.02 793.008C1266.42 823.406 1277.02 859.574 1287.22 894.354C1296.93 927.637 1306.08 958.868 1331.6 984.551C1357.12 1010.23 1388.62 1019.44 1421.8 1028.93C1456.63 1039.14 1492.69 1049.67 1523.09 1080.07C1529.78 1086.78 1535.84 1094.1 1541.17 1101.93L1520.81 1117.74Z" fill="#FFF1ED"/>
<path d="M1503.45 1266.57C1501.01 1258.97 1498.79 1251.31 1496.52 1243.66C1486.81 1210.38 1477.66 1179.15 1452.14 1153.46C1426.62 1127.78 1395.06 1118.57 1361.89 1109.08C1327.05 1098.88 1290.99 1088.34 1260.6 1057.94C1230.2 1027.54 1219.77 991.263 1209.23 956.316C1199.52 923.033 1190.37 891.803 1164.85 866.119C1139.33 840.436 1107.77 831.228 1074.6 821.742C1039.76 811.536 1003.71 800.996 973.309 770.598C942.91 740.199 932.371 704.032 922.164 669.307C912.401 636.024 903.248 604.738 877.787 579.054C852.325 553.371 820.707 544.163 787.535 534.677C752.699 524.47 716.642 513.931 686.244 483.532C655.845 453.134 645.306 416.967 635.099 382.241C625.336 348.959 616.183 317.728 590.722 291.989C565.26 266.251 533.697 257.153 500.47 247.612C465.634 237.405 429.577 226.866 399.179 196.467C368.78 166.069 358.241 129.902 348.034 95.1765C338.326 61.8936 329.118 30.6631 303.657 4.92432C278.195 -20.8145 246.632 -29.9118 213.405 -39.4529C178.569 -49.6596 142.512 -60.1992 112.114 -90.5976C81.7153 -120.996 71.1757 -157.163 60.9689 -191.889C51.2614 -225.171 42.0532 -256.402 16.5917 -282.141C-8.86968 -307.879 -40.433 -316.977 -73.6049 -326.518C-81.26 -328.792 -88.9151 -331.011 -96.5146 -333.452L-89.3588 -359.246C-81.9811 -356.861 -74.5479 -354.697 -67.1702 -352.534C-32.2786 -342.327 3.77783 -331.732 34.1762 -301.334C64.5746 -270.935 75.1142 -234.768 85.321 -200.043C95.0285 -166.76 104.237 -135.53 129.698 -109.846C155.16 -84.1629 186.723 -74.9547 219.895 -65.469C254.564 -55.0404 290.843 -44.4453 321.13 -14.0469C351.418 16.3514 362.068 52.5189 372.275 87.244C381.983 120.527 391.191 151.757 416.652 177.441C442.114 203.124 473.677 212.332 506.849 221.818C541.74 232.025 577.742 242.62 608.14 273.018C638.538 303.417 649.133 339.584 659.34 374.309C669.047 407.592 678.256 438.822 703.717 464.506C729.179 490.189 760.742 499.397 793.914 508.883C828.805 519.09 864.806 529.629 895.205 560.028C925.603 590.426 936.198 626.593 946.405 661.374C956.113 694.657 965.265 725.887 990.782 751.571C1016.3 777.254 1047.81 786.462 1080.98 795.948C1115.81 806.155 1151.87 816.694 1182.27 847.093C1212.67 877.491 1223.26 913.658 1233.47 948.439C1243.18 981.722 1252.33 1012.95 1277.85 1038.64C1303.36 1064.32 1334.87 1073.53 1368.04 1083.01C1402.88 1093.22 1438.94 1103.76 1469.33 1134.16C1499.73 1164.56 1510.33 1200.72 1520.54 1235.45C1522.7 1242.88 1524.86 1250.32 1527.25 1257.64L1503.45 1266.57Z" fill="#FFF1ED"/>
<path d="M1433.11 1266.96C1426.12 1244.7 1414.12 1224.34 1398.05 1207.44C1372.37 1181.75 1341.03 1172.54 1307.86 1163.06C1273.02 1152.85 1236.97 1142.31 1206.57 1111.91C1176.17 1081.52 1165.57 1045.35 1155.37 1010.57C1145.66 977.284 1136.51 946.054 1110.99 920.371C1085.47 894.687 1053.91 885.479 1020.74 875.993C985.901 865.787 949.845 855.247 919.446 824.849C889.048 794.45 878.508 758.283 868.246 723.558C858.539 690.275 849.386 658.989 823.869 633.306C798.352 607.622 766.789 598.469 733.617 588.928C698.781 578.722 662.724 568.182 632.326 537.784C601.927 507.385 591.388 471.218 581.181 436.493C571.418 403.21 562.265 371.979 536.804 346.241C511.342 320.502 479.724 311.404 446.552 301.863C411.716 291.657 375.659 281.117 345.261 250.719C314.862 220.32 304.323 184.153 294.116 149.428C284.353 116.145 275.2 84.9142 249.739 59.1754C224.277 33.4367 192.714 24.3394 159.487 14.7982C124.65 4.53601 88.594 -6.00354 58.1956 -36.4019C27.7973 -66.8003 17.2577 -102.968 7.05091 -137.693C-2.6566 -170.976 -11.8649 -202.206 -37.3263 -227.945C-54.4255 -244.513 -75.1447 -256.877 -97.8457 -264.057L-89.3586 -288.686C-63.344 -280.45 -39.5785 -266.328 -19.9082 -247.416C10.4902 -217.073 21.0297 -180.85 31.2365 -146.18C40.944 -112.897 50.1523 -81.6667 75.6137 -55.9834C101.075 -30.3001 132.638 -21.0918 165.81 -11.6062C200.702 -1.39941 236.703 9.19562 267.101 39.594C297.5 69.9924 308.095 106.16 318.302 140.885C328.009 174.168 337.217 205.398 362.679 231.082C388.14 256.765 419.703 265.973 452.875 275.459C487.767 285.666 523.768 296.261 554.166 326.659C584.565 357.057 595.16 393.225 605.367 427.95C615.074 461.233 624.227 492.463 649.744 518.147C675.261 543.83 706.768 553.038 739.94 562.524C774.777 572.731 810.833 583.27 841.231 613.669C871.63 644.067 882.225 680.234 892.432 715.015C902.139 748.298 911.292 779.528 936.809 805.212C962.326 830.895 993.833 840.103 1027.01 849.589C1061.84 859.796 1097.9 870.335 1128.3 900.734C1158.69 931.132 1169.29 967.299 1179.5 1002.08C1189.2 1035.36 1198.36 1066.59 1223.87 1092.28C1249.39 1117.96 1280.9 1127.17 1314.07 1136.65C1348.91 1146.86 1384.96 1157.4 1415.36 1187.8C1434.24 1207.44 1448.34 1231.17 1456.58 1257.14L1433.11 1266.96Z" fill="#FFF1ED"/>
<path d="M1352.9 1270.78C1350.18 1267.44 1347.29 1264.24 1344.25 1261.19C1318.56 1235.5 1287.22 1226.3 1254.05 1216.81C1219.21 1206.6 1183.16 1196.06 1152.76 1165.67C1122.36 1135.27 1111.77 1099.1 1101.56 1064.37C1091.85 1031.09 1082.7 999.806 1057.18 974.123C1031.67 948.439 1000.16 939.231 966.985 929.745C932.149 919.539 896.093 908.999 865.694 878.601C835.296 848.202 824.756 812.035 814.494 777.31C804.787 744.027 795.634 712.796 770.117 687.058C744.6 661.319 713.037 652.221 679.865 642.68C645.029 632.474 608.972 621.934 578.574 591.536C548.175 561.137 537.636 524.97 527.429 490.245C517.666 456.962 508.513 425.731 483.052 399.992C457.591 374.254 425.972 365.156 392.8 355.615C357.964 345.409 321.907 334.869 291.509 304.47C261.11 274.072 250.571 237.905 240.364 203.18C230.601 169.897 221.448 138.666 195.987 112.927C170.525 87.1886 138.075 77.2037 104.792 67.4962C70.0111 57.234 33.9546 46.5835 3.55621 16.296C-26.8422 -13.9914 -37.3818 -50.2698 -47.5885 -84.995C-57.296 -118.278 -66.5043 -149.508 -91.9657 -175.247C-95.0901 -178.278 -98.3672 -181.148 -101.784 -183.845L-85.1427 -204.037C-81.19 -200.762 -77.4127 -197.281 -73.8265 -193.608C-43.3727 -163.21 -32.8331 -127.042 -22.6263 -92.3172C-12.9188 -59.0343 -3.71056 -27.8038 21.7509 -2.12051C47.2123 23.5628 78.7756 32.7711 111.948 42.2567C147.061 52.6853 183.062 63.2249 213.46 93.6788C243.859 124.133 254.454 160.245 264.661 194.97C274.368 228.253 283.576 259.483 309.038 285.166C334.499 310.85 366.062 320.058 399.234 329.544C434.126 339.75 470.127 350.345 500.525 380.744C530.924 411.142 541.519 447.31 551.726 482.035C561.433 515.318 570.586 546.548 596.103 572.231C621.62 597.915 653.128 607.123 686.3 616.609C721.136 626.815 757.192 637.411 787.591 667.809C817.989 698.207 828.584 734.375 838.791 769.1C848.498 802.383 857.651 833.613 883.168 859.297C908.685 884.98 940.193 894.188 973.365 903.674C1008.2 913.88 1044.26 924.42 1074.66 954.874C1105.05 985.328 1115.65 1021.44 1125.86 1056.16C1135.56 1089.45 1144.72 1120.68 1170.23 1146.36C1195.75 1172.04 1227.31 1181.25 1260.49 1190.74C1295.32 1200.95 1331.38 1211.49 1361.78 1241.88C1365.44 1245.54 1368.93 1249.48 1372.2 1253.48L1352.9 1270.78Z" fill="#FFF1ED"/>
<path d="M1215.39 1275L1200.13 1270.45C1165.24 1260.24 1129.24 1249.7 1098.84 1219.31C1068.44 1188.91 1057.85 1152.74 1047.64 1118.02C1037.93 1084.73 1028.78 1053.45 1003.26 1027.76C977.747 1002.08 946.239 992.927 913.067 983.386C878.231 973.179 842.174 962.64 811.776 932.242C781.378 901.843 770.783 865.676 760.576 830.951C750.868 797.668 741.716 766.437 716.199 740.698C690.682 714.96 659.118 705.862 625.946 696.321C591.11 686.114 555.054 675.575 524.656 645.176C494.257 614.778 483.718 578.611 473.511 543.885C463.748 510.603 454.595 479.372 429.134 453.633C403.672 427.895 372.053 418.797 338.881 409.256C304.045 398.994 267.989 388.454 237.59 358.056C207.192 327.658 196.653 291.49 186.446 256.765C176.683 223.482 167.53 192.252 142.069 166.513C116.607 140.774 84.9884 131.677 51.8164 122.136C16.0373 111.152 -19.9082 100.557 -50.5285 70.1588C-81.1488 39.7604 -91.2446 3.70392 -101.451 -31.0767C-102.949 -36.2356 -104.447 -41.2835 -106 -46.3868L-81.0933 -53.9865C-79.5401 -48.8276 -78.0424 -43.6133 -76.4892 -38.4544C-66.7816 -5.17153 -57.5734 26.0589 -32.112 51.7422C-6.65054 77.4256 24.9128 86.6338 58.0847 96.1194C92.9763 106.326 128.977 116.921 159.376 147.32C189.774 177.718 200.369 213.885 210.576 248.611C220.283 281.894 229.436 313.124 254.953 338.807C280.47 364.491 311.978 373.699 345.15 383.184C379.986 393.391 416.042 403.986 446.441 434.385C476.839 464.783 487.434 500.951 497.641 535.676C507.348 568.959 516.501 600.189 542.018 625.872C567.535 651.556 599.043 660.764 632.215 670.25C667.051 680.456 703.107 691.051 733.506 721.45C763.904 751.848 774.499 788.016 784.706 822.741C794.413 856.024 803.566 887.254 829.083 912.937C854.6 938.621 886.108 947.829 919.28 957.315C954.116 967.521 990.172 978.061 1020.57 1008.51C1050.97 1038.97 1061.51 1075.08 1071.77 1109.81C1081.48 1143.09 1090.63 1174.32 1116.15 1200C1141.67 1225.69 1173.23 1234.89 1206.4 1244.38L1221.93 1248.98L1215.39 1275Z" fill="#FFF1ED"/>
<path d="M1043.42 1271.62C1014.19 1241.55 1003.82 1206.1 993.5 1171.77C983.793 1138.48 974.64 1107.25 949.123 1081.52C923.606 1055.78 892.098 1046.68 858.927 1037.14C824.09 1026.93 788.034 1016.39 757.636 985.993C727.237 955.595 716.642 919.428 706.435 884.702C696.728 851.419 687.575 820.189 662.058 794.45C636.541 768.712 605.033 759.614 571.861 750.073C537.025 739.866 500.969 729.327 470.57 698.928C440.172 668.53 429.633 632.363 419.37 597.637C409.663 564.354 400.51 533.124 374.993 507.385C349.476 481.646 317.913 472.549 284.741 463.008C249.905 452.746 213.848 442.206 183.45 411.808C153.052 381.409 142.512 345.242 132.305 310.517C122.542 277.234 113.389 246.003 87.928 220.265C62.4666 194.526 30.8478 185.429 -2.32413 175.887C-36.5501 165.847 -71.9963 155.474 -102.173 125.963L-84.0337 107.269C-59.016 131.621 -28.3403 140.885 4.44339 150.204C39.335 160.411 75.336 171.006 105.734 201.404C136.133 231.803 146.728 267.97 156.935 302.695C166.642 335.978 175.795 367.209 201.312 392.892C226.829 418.575 258.337 427.784 291.508 437.269C326.677 447.698 362.623 458.293 393.243 488.691C423.863 519.09 434.237 555.257 444.443 589.982C454.151 623.265 463.304 654.496 488.821 680.179C514.338 705.862 545.845 715.071 579.017 724.556C613.853 734.763 649.91 745.358 680.308 775.756C710.707 806.155 721.302 842.322 731.508 877.047C741.216 910.33 750.369 941.561 775.886 967.244C801.403 992.927 832.966 1002.14 866.138 1011.62C900.974 1021.83 937.03 1032.42 967.429 1062.82C997.827 1093.22 1008.37 1129.39 1018.63 1164.11C1028.17 1196.73 1037.21 1227.57 1061.95 1252.87L1043.42 1271.62Z" fill="#FFF1ED"/>
<path d="M953.506 1267.29C947.958 1253.53 943.964 1239.55 939.971 1225.74C930.263 1192.46 921.11 1161.23 895.593 1135.49C870.076 1109.75 838.569 1100.65 805.397 1091.11C770.45 1080.68 734.227 1070.14 703.884 1039.52C673.541 1008.9 662.89 972.958 652.684 938.232C642.976 904.95 633.823 873.719 608.307 847.98C582.79 822.242 551.282 813.144 518.11 803.603C483.274 793.396 447.217 782.857 416.819 752.458C386.42 722.06 375.548 686.003 365.508 651.223C355.8 617.94 346.647 586.71 321.13 561.026C295.614 535.343 264.106 526.135 230.934 516.649C196.098 506.442 160.041 495.847 129.643 465.449C99.2444 435.05 88.7049 398.883 78.4426 364.158C68.7351 330.875 59.5823 299.644 34.0654 273.961C8.54855 248.278 -23.0147 239.07 -56.1867 229.584C-69.8327 225.59 -83.9225 221.43 -97.7349 216.049L-88.2492 191.808C-75.5463 196.8 -62.5659 200.572 -48.8645 204.566C-14.0284 214.828 22.0281 225.368 52.4265 255.766C82.8249 286.165 93.4199 322.332 103.627 357.057C113.334 390.34 122.487 421.571 148.004 447.254C173.521 472.937 205.029 482.146 238.201 491.631C273.037 501.838 309.093 512.433 339.492 542.832C369.89 573.23 380.485 609.397 390.692 644.122C400.399 677.405 409.552 708.636 435.069 734.319C460.586 760.002 492.094 769.211 525.266 778.696C560.102 788.903 596.158 799.498 626.557 829.897C656.955 860.295 667.495 896.462 677.757 931.188C687.464 964.471 696.617 995.701 722.134 1021.38C747.651 1047.07 779.214 1056.28 812.386 1065.76C847.222 1075.97 883.279 1086.56 913.677 1116.96C944.076 1147.36 954.615 1183.53 964.822 1218.25C968.871 1231.95 972.643 1244.93 977.636 1257.64L953.506 1267.29Z" fill="#FFF1ED"/>
<path d="M882.113 1266.35C874.125 1240 864.418 1212.32 841.453 1189.35C815.769 1163.67 784.428 1154.52 751.256 1144.97C716.42 1134.71 680.363 1124.17 649.965 1093.77C619.567 1063.38 608.972 1027.21 598.765 992.484C589.057 959.201 579.905 927.97 554.388 902.231C528.871 876.493 497.363 867.395 464.191 857.854C429.133 847.259 393.243 836.72 362.678 806.543C332.113 776.367 321.685 739.977 311.478 705.252C301.77 671.969 292.618 640.739 267.101 615.055C241.584 589.372 210.076 580.164 176.904 570.678C142.068 560.471 106.011 549.876 75.6131 519.478C45.2147 489.08 34.6197 452.912 24.4129 418.187C14.7054 384.904 5.5526 353.674 -19.9643 327.99C-42.9295 305.025 -70.6098 295.262 -96.9587 287.33L-89.4146 262.423C-61.1796 270.966 -28.7843 282.337 -1.60323 309.574C28.7952 339.972 39.3902 376.14 49.597 410.865C59.3045 444.148 68.4573 475.378 93.9742 501.117C119.491 526.856 150.999 535.953 184.171 545.494C219.007 555.701 255.063 566.296 285.462 596.694C315.86 627.093 326.4 663.26 336.662 697.985C346.37 731.268 355.522 762.499 381.039 788.182C406.556 813.865 438.119 823.074 471.291 832.559C506.127 842.766 542.184 853.361 572.582 883.759C602.981 914.158 613.52 950.325 623.782 985.05C633.49 1018.33 642.643 1049.56 668.16 1075.25C693.677 1100.93 725.24 1110.14 758.412 1119.62C793.248 1129.83 829.304 1140.43 859.703 1170.82C886.939 1198.01 898.533 1230.4 906.854 1258.64L882.113 1266.35Z" fill="#FFF1ED"/>
<path d="M807.505 1269.12C802.005 1259.67 795.312 1250.96 787.591 1243.21C761.908 1217.53 730.566 1208.38 697.394 1198.84C662.503 1188.58 626.502 1178.04 596.103 1147.64C565.705 1117.24 555.11 1081.07 544.903 1046.35C535.195 1013.06 526.043 981.833 500.526 956.15C475.009 930.466 443.168 921.092 409.885 911.384C375.049 901.177 338.993 890.582 308.594 860.184C278.196 829.786 267.601 793.618 257.394 758.893C247.687 725.61 238.534 694.38 213.017 668.696C187.5 643.013 155.992 633.805 122.82 624.319C88.1507 613.891 51.9277 603.296 21.5848 572.897C-8.75807 542.499 -19.4086 506.331 -29.6154 471.606C-39.3229 438.323 -48.4757 407.093 -73.9926 381.41C-81.7203 373.676 -90.4077 366.964 -99.8423 361.44L-86.6955 339.251C-75.5328 345.761 -65.2435 353.665 -56.0753 362.771C-25.6769 393.169 -15.0818 429.337 -4.87508 464.062C4.83244 497.345 13.9852 528.575 39.5021 554.314C65.019 580.053 96.5269 589.15 129.699 598.691C164.535 608.954 200.591 619.493 230.99 649.892C261.388 680.29 271.928 716.457 282.19 751.183C291.897 784.466 301.05 815.696 326.567 841.379C352.084 867.063 383.647 876.271 416.819 885.756C451.655 895.963 487.712 906.558 518.11 936.957C548.509 967.355 559.048 1003.52 569.255 1038.25C579.018 1071.53 588.171 1102.76 613.632 1128.44C639.094 1154.13 670.712 1163.34 703.884 1172.82C738.72 1183.03 774.777 1193.62 805.175 1224.02C814.472 1233.32 822.527 1243.78 829.139 1255.14L807.505 1269.12Z" fill="#FFF1ED"/>
<path d="M702.219 1274.06C683.445 1264.89 663.779 1257.68 643.531 1252.53C608.639 1242.33 572.638 1231.73 542.24 1201.33C511.841 1170.94 501.246 1134.77 491.039 1100.04C481.332 1066.76 472.124 1035.53 446.662 1009.85C421.201 984.163 389.638 974.954 356.466 965.469C321.574 955.262 285.573 944.667 255.175 914.269C224.776 883.87 214.181 847.703 203.974 812.978C194.267 779.695 185.114 748.464 159.597 722.781C134.08 697.098 102.572 687.889 69.4005 678.404C34.5644 668.197 -1.49208 657.602 -31.8905 627.204C-62.2888 596.805 -72.8839 560.638 -83.0907 525.913C-88.35 505.496 -95.7116 485.679 -105.057 466.78L-82.0922 454.576C-72.0881 474.888 -64.1885 496.171 -58.5168 518.091C-48.8093 551.374 -39.6565 582.605 -14.1396 608.343C11.3773 634.082 42.9406 643.179 76.1126 652.721C110.949 662.983 147.005 673.522 177.404 703.921C207.802 734.319 218.341 770.487 228.548 805.212C238.311 838.495 247.464 869.725 272.925 895.464C298.387 921.203 330.006 930.3 363.178 939.841C398.014 950.103 434.07 960.643 464.469 991.041C494.867 1021.44 505.406 1057.61 515.613 1092.33C525.376 1125.62 534.529 1156.85 559.99 1182.53C585.452 1208.21 617.071 1217.42 650.243 1226.91C672.172 1232.58 693.471 1240.46 713.813 1250.43L702.219 1274.06Z" fill="#FFF1ED"/>
<path d="M510.178 1273.28C502.352 1267.96 495.052 1261.9 488.377 1255.2C457.923 1224.8 447.384 1188.63 437.177 1153.91C427.47 1120.62 418.261 1089.39 392.8 1063.71C367.338 1038.03 335.775 1028.82 302.603 1019.33C267.712 1009.13 231.711 998.53 201.312 968.132C170.914 937.733 160.319 901.566 150.112 866.841C140.405 833.558 131.252 802.327 105.735 776.644C80.218 750.961 48.7102 741.752 15.5382 732.267C-19.2979 722.06 -55.3544 711.465 -85.7527 681.067C-92.6398 674.239 -98.8621 666.772 -104.336 658.767L-82.8128 644.123C-78.3923 650.637 -73.3785 656.727 -67.8354 662.317C-42.0967 688.001 -10.7553 697.153 22.4167 706.694C57.2528 716.901 93.3093 727.441 123.708 757.839C154.106 788.238 164.646 824.405 174.852 859.13C184.615 892.413 193.768 923.643 219.23 949.382C244.691 975.121 276.31 984.218 309.482 993.759C344.318 1003.97 380.374 1014.51 410.773 1044.9C441.171 1075.3 451.711 1111.47 461.917 1146.2C471.68 1179.48 480.833 1210.71 506.295 1236.45C511.867 1241.99 517.939 1247 524.434 1251.42L510.178 1273.28Z" fill="#FFF1ED"/>
<path d="M405.336 1268.45C396.063 1248.96 388.634 1228.64 383.148 1207.77C373.44 1174.49 364.232 1143.26 338.771 1117.57C313.309 1091.89 281.746 1082.68 248.574 1073.19C213.682 1062.99 177.681 1052.39 147.283 1021.99C116.885 991.596 106.289 955.429 96.0827 920.703C86.3752 887.421 77.1669 856.19 51.7055 830.507C26.2441 804.824 -5.31921 795.615 -38.4912 786.13C-59.3678 780.643 -79.685 773.214 -99.177 763.941L-87.417 740.754C-69.3299 749.218 -50.5008 755.995 -31.1689 761.001C3.66718 771.208 39.7236 781.747 70.122 812.146C100.52 842.544 111.06 878.712 121.267 913.437C131.03 946.72 140.183 977.95 165.644 1003.69C191.105 1029.43 222.724 1038.52 255.896 1048.07C290.732 1058.27 326.789 1068.81 357.187 1099.21C387.585 1129.61 398.125 1165.78 408.332 1200.5C413.338 1219.83 420.115 1238.66 428.579 1256.75L405.336 1268.45Z" fill="#FFF1ED"/>
<path d="M330.783 1266.24L329.452 1261.41C319.744 1228.13 310.536 1196.9 285.074 1171.21C259.613 1145.53 228.05 1136.32 194.878 1126.84C159.986 1116.63 123.985 1106.03 93.5869 1075.64C63.1885 1045.24 52.5934 1009.07 42.3867 974.344C32.6792 941.062 23.4709 909.831 -1.99053 884.148C-27.452 858.464 -59.459 849.256 -92.631 839.826L-97.2351 838.495L-89.9129 813.532L-85.3087 814.864C-50.4726 825.071 -14.4162 835.61 15.9822 866.009C46.3806 896.407 56.9202 932.574 67.127 967.299C76.8899 1000.58 86.0427 1031.81 111.504 1057.55C136.966 1083.29 168.529 1092.39 201.756 1101.93C236.592 1112.14 272.649 1122.68 303.047 1153.07C333.446 1183.47 343.985 1219.64 354.192 1254.36L355.523 1258.91L330.783 1266.24Z" fill="#FFF1ED"/>
<path d="M259.391 1267.79C252.7 1251.95 243.062 1237.53 230.99 1225.3C205.306 1199.56 173.965 1190.41 140.793 1180.92C105.902 1170.71 69.8451 1160.12 39.4467 1129.72C9.0483 1099.32 -1.49128 1063.1 -11.698 1028.43C-21.4055 995.146 -30.6138 963.916 -56.0752 938.233C-68.2982 926.142 -82.7211 916.502 -98.5664 909.831L-88.0823 886.034C-69.2979 894.02 -52.1904 905.482 -37.6587 919.816C-7.26031 950.214 3.27927 986.382 13.486 1021.11C23.1935 1054.39 32.4018 1085.62 57.8632 1111.36C83.3246 1137.1 114.888 1146.2 148.115 1155.74C182.951 1165.94 219.008 1176.48 249.406 1206.88C263.74 1221.41 275.202 1238.52 283.189 1257.3L259.391 1267.79Z" fill="#FFF1ED"/>
<path d="M169.86 1272.5C145.619 1251.81 117.106 1243.44 86.9297 1234.62C52.0382 1224.41 15.9817 1213.81 -14.4167 1183.42C-44.8151 1153.02 -55.3547 1116.85 -65.5614 1082.13C-74.3814 1051.95 -82.7576 1023.44 -103.448 998.918L-83.8116 982.221C-59.515 1010.68 -49.9739 1043.24 -40.7657 1074.75C-31.0582 1108.03 -21.8499 1139.32 3.61153 1165C29.073 1190.68 60.6362 1199.84 93.8637 1209.38C125.316 1218.59 157.878 1228.13 186.39 1252.42L169.86 1272.5Z" fill="#FFF1ED"/>
</g>
</g>
<defs>
<clipPath id="clip0">
<rect width="1439" height="1024" fill="white"/>
</clipPath>
</defs>
</svg>
